@startuml
[*] ---> read_first_byte

read_first_byte --> [*]: u8:eof-object?
read_first_byte -down-> P: guard:correct-first-byte?
read_first_byte --> [*]: action:wrong-first-byte-error

P: Read the "P" letter
P --> [*]: u8:eof-object? -> action:unexpected-eof-error
P -down-> N: u8:letter-P?
P --> [*]: action:unexpected-byte-error

N: Read the "N" letter
N --> [*]: u8:eof-object? -> action:unexpected-eof-error
N -down-> G: u8:letter-N?
N --> [*]: action:unexpected-byte-error

G: Read the "G" letter
G --> [*]: u8:eof-object? -> action:unexpected-eof-error
G -down-> CR: u8:letter-G?
G --> [*]: action:unexpected-byte-error

CR: Read the carriage return (CR)
CR ---> [*]: u8:eof-object? -> action:unexpected-eof-error
CR -down-> LF: u8:cr?
CR --> [*]: action:unexpected-byte-error

LF: Read the linefeed (LF)
LF ---> [*]: u8:eof-object? -> action:unexpected-eof-error
LF -down-> ctrl_z: u8:lf?
LF ---> [*]: action:unexpected-byte-error

ctrl_z --> [*]: u8:eof-object? -> action:unexpected-eof-error
ctrl_z -down-> final_LF: guard:letter-ctrl-z?
ctrl_z --> [*]: action:unexpected-byte-error

final_LF ---> [*]: u8:eof-object? -> action:unexpected-eof-error
final_LF -down-> [*]: u8:lf?
final_LF ---> [*]: action:unexpected-byte-error
@enduml
